# xmcd
#
# Track frame offsets:
# 150
# 20701
# 41063
# 61210
# 89487
# 109249
# 138235
# 155553
# 170398
# 193529
# 217241
# 231288
#
# Disc length: 3661 seconds
#
#
# Revision: 0
# Processed by: cddbd v1.5.1PL2 Copyright (c) Steve Scherf et al.
# Submitted via: FreeRIP 2.942 
#
DISCID=ad0e4b0c
DTITLE=Thanx - Symbiosis
DYEAR=2006
DGENRE=Blues
TTITLE0=Kind hearted woman
TTITLE1=Move on
TTITLE2=Autumn sun
TTITLE3=Walk on by
TTITLE4=New plan
TTITLE5=Down with the mess
TTITLE6=Barricades
TTITLE7=The bus
TTITLE8=Winterness
TTITLE9=White boots
TTITLE10=When I get my kixx
TTITLE11=A shotgun from my heart
EXTD=
EXTT0=
EXTT1=
EXTT2=
EXTT3=
EXTT4=
EXTT5=
EXTT6=
EXTT7=
EXTT8=
EXTT9=
EXTT10=
EXTT11=
PLAYORDER=
